<svg xmlns="http://www.w3.org/2000/svg" viewBox="0 0 640 400" role="img" aria-label="Gate Comet">
<defs>
<linearGradient id="sky" x1="0" y1="0" x2="0" y2="1"><stop offset="0" stop-color="#1c2744"/><stop offset="1" stop-color="#070b16"/></linearGradient>
<linearGradient id="sheen" x1="0" y1="0" x2="1" y2="1"><stop offset="0" stop-color="#fff" stop-opacity="0.35"/><stop offset="1" stop-color="#fff" stop-opacity="0"/></linearGradient>
<filter id="soft" x="-20%" y="-20%" width="140%" height="140%"><feGaussianBlur stdDeviation="6"/></filter>
<filter id="titleGlow" x="-30%" y="-80%" width="160%" height="260%"><feGaussianBlur stdDeviation="4.5"/></filter>
<filter id="titleShadow" x="-30%" y="-80%" width="160%" height="300%"><feDropShadow dx="0" dy="4" stdDeviation="4" flood-color="#000" flood-opacity=".36"/><feDropShadow dx="0" dy="0" stdDeviation="3" flood-color="#7ee7f5" flood-opacity=".24"/></filter>
</defs>
<rect width="640" height="400" fill="url(#sky)"/>
<circle cx="320" cy="190" r="120" fill="none" stroke="#9ad7ff" stroke-opacity=".35" stroke-width="3"/>
<path d="M320 70 A120 120 0 0 1 424 130" fill="none" stroke="#f0c27a" stroke-width="14" stroke-linecap="round"/>
<circle cx="404" cy="250" r="10" fill="#fff"/>
<path d="M404 250 C 360 230, 300 210, 250 230" fill="none" stroke="#b7ecff" stroke-width="3" opacity=".7"/>
<circle cx="320" cy="190" r="8" fill="#7ee7f5"/>
<rect class="ps-title-pill-glow" x="229" y="347" width="182" height="42" rx="21" fill="none" stroke="#7ee7f5" stroke-opacity=".48" stroke-width="4" filter="url(#titleGlow)"/>
<rect class="ps-title-pill" x="229" y="347" width="182" height="42" rx="21" fill="#fffdf9" fill-opacity=".94" stroke="#ffffff" stroke-opacity=".9" stroke-width="1.5" filter="url(#titleShadow)"/>
<text x="320" y="368" text-anchor="middle" dominant-baseline="middle" fill="#242422" font-family="Georgia, serif" font-size="26" font-weight="700">Gate Comet</text>
</svg>
