<svg xmlns="http://www.w3.org/2000/svg" viewBox="0 0 640 400" role="img" aria-label="Pier Watch">
<defs>
<linearGradient id="sky" x1="0" y1="0" x2="0" y2="1"><stop offset="0" stop-color="#123044"/><stop offset="1" stop-color="#07141c"/></linearGradient>
<linearGradient id="sheen" x1="0" y1="0" x2="1" y2="1"><stop offset="0" stop-color="#fff" stop-opacity="0.35"/><stop offset="1" stop-color="#fff" stop-opacity="0"/></linearGradient>
<filter id="soft" x="-20%" y="-20%" width="140%" height="140%"><feGaussianBlur stdDeviation="6"/></filter>
<filter id="titleGlow" x="-30%" y="-80%" width="160%" height="260%"><feGaussianBlur stdDeviation="4.5"/></filter>
<filter id="titleShadow" x="-30%" y="-80%" width="160%" height="300%"><feDropShadow dx="0" dy="4" stdDeviation="4" flood-color="#000" flood-opacity=".36"/><feDropShadow dx="0" dy="0" stdDeviation="3" flood-color="#7ee7f5" flood-opacity=".24"/></filter>
</defs>
<rect width="640" height="400" fill="url(#sky)"/>
<path d="M40 220 H200 V160 H280 V240 H400 V140 H520 V230 H600" fill="none" stroke="#7ec8ff" stroke-width="8" stroke-linejoin="round"/>
<rect x="150" y="250" width="28" height="50" fill="#c4a6ff"/>
<rect x="330" y="250" width="28" height="50" fill="#f0c27a"/>
<rect x="470" y="250" width="28" height="50" fill="#7ee7f5"/>
<ellipse cx="220" cy="180" rx="26" ry="12" fill="#d7c6b0"/>
<ellipse cx="430" cy="200" rx="34" ry="14" fill="#b7a898"/>
<rect x="40" y="300" width="560" height="16" fill="#6d5344"/>
<rect class="ps-title-pill-glow" x="233" y="347" width="174" height="42" rx="21" fill="none" stroke="#7ee7f5" stroke-opacity=".48" stroke-width="4" filter="url(#titleGlow)"/>
<rect class="ps-title-pill" x="233" y="347" width="174" height="42" rx="21" fill="#fffdf9" fill-opacity=".94" stroke="#ffffff" stroke-opacity=".9" stroke-width="1.5" filter="url(#titleShadow)"/>
<text x="320" y="368" text-anchor="middle" dominant-baseline="middle" fill="#242422" font-family="Georgia, serif" font-size="26" font-weight="700">Pier Watch</text>
</svg>
